<svg xmlns="http://www.w3.org/2000/svg" width="48" height="48" viewBox="0 0 48 48"><g fill="none"><path fill="url(#SVGIRbAbbIU)" d="M12 6a6 6 0 0 0-6 6v24a6 6 0 0 0 6 6h24a6 6 0 0 0 6-6V12a6 6 0 0 0-6-6z"/><path fill="url(#SVGK2yQpb1K)" d="M20.884 15.366a1.25 1.25 0 0 1 0 1.768L14.018 24l6.866 6.866a1.25 1.25 0 0 1-1.768 1.768l-7.75-7.75a1.25 1.25 0 0 1 0-1.768l7.75-7.75a1.25 1.25 0 0 1 1.768 0m8 0l7.75 7.75a1.25 1.25 0 0 1 0 1.768l-7.75 7.75a1.25 1.25 0 0 1-1.768-1.768L33.982 24l-6.866-6.866a1.25 1.25 0 0 1 1.768-1.768"/><defs><linearGradient id="SVGIRbAbbIU" x1="14.778" x2="34.52" y1="6" y2="42" gradientUnits="userSpaceOnUse"><stop offset=".028" stop-color="#e67eea"/><stop offset=".438" stop-color="#ad64d7"/><stop offset="1" stop-color="#794dc5"/></linearGradient><linearGradient id="SVGK2yQpb1K" x1="17.165" x2="28.034" y1="15.692" y2="42.785" gradientUnits="userSpaceOnUse"><stop stop-color="#fdfdfd"/><stop offset="1" stop-color="#f9dcfa"/></linearGradient></defs></g></svg>